<svg xmlns="http://www.w3.org/2000/svg" width="1024" height="554" viewBox="0 0 1024 554" role="img" aria-label="Vibe Usage 7-day dashboard: 2.8B tokens, $2057.63, 442h 0m active">
  <defs>
    <linearGradient id="barGrad" x1="0" y1="0" x2="0" y2="1">
      <stop offset="0%" stop-color="#9ec5fe"/>
      <stop offset="100%" stop-color="#57606a"/>
    </linearGradient>
  </defs>
  <rect width="1024" height="554" rx="14" fill="#ffffff" stroke="#d0d7de"/>
  <g font-family="'JetBrains Mono','SF Mono','PingFang SC','Menlo',monospace" text-rendering="geometricPrecision">
    <rect x="16" y="14" width="248" height="26" rx="13" fill="#ffffff" stroke="#d0d7de"/><text x="41" y="31" font-size="11" text-anchor="middle" fill="#57606a" font-weight="500">今天</text><text x="91" y="31" font-size="11" text-anchor="middle" fill="#57606a" font-weight="500">24H</text><rect x="121" y="17" width="40" height="20" rx="10" fill="#ddf4ff" stroke="#0969da" stroke-opacity="0.35"/><text x="141" y="31" font-size="11" text-anchor="middle" fill="#0969da" font-weight="700">7D</text><text x="191" y="31" font-size="11" text-anchor="middle" fill="#57606a" font-weight="500">30D</text><text x="247" y="31" font-size="11" text-anchor="middle" fill="#57606a" font-weight="500">90D</text><text x="303" y="31" font-size="11" text-anchor="middle" fill="#57606a" font-weight="500">自定义</text><rect x="274" y="14" width="85" height="26" rx="13" fill="#ffffff" stroke="#d0d7de"/>
      <text x="316.5" y="31" font-size="11" text-anchor="middle" fill="#57606a" font-weight="500">工具 全部 ▾</text><rect x="367" y="14" width="85" height="26" rx="13" fill="#ffffff" stroke="#d0d7de"/>
      <text x="409.5" y="31" font-size="11" text-anchor="middle" fill="#57606a" font-weight="500">模型 全部 ▾</text><rect x="460" y="14" width="85" height="26" rx="13" fill="#ffffff" stroke="#d0d7de"/>
      <text x="502.5" y="31" font-size="11" text-anchor="middle" fill="#57606a" font-weight="500">项目 全部 ▾</text><rect x="553" y="14" width="85" height="26" rx="13" fill="#ffffff" stroke="#d0d7de"/>
      <text x="595.5" y="31" font-size="11" text-anchor="middle" fill="#57606a" font-weight="500">终端 全部 ▾</text>
    
  <g>
    <rect x="16" y="54" width="188" height="86" rx="10" fill="#ffffff" stroke="#d0d7de"/>
    <text x="32" y="81" font-size="12" fill="#57606a">预估费用</text>
    <text x="190" y="81" font-size="11" fill="#6e7781" text-anchor="end">+21.0%</text>
    <text x="32" y="118" font-size="24" font-weight="700" fill="#1a7f37">$2057.63</text>
  </g>
  <g>
    <rect x="217" y="54" width="188" height="86" rx="10" fill="#ffffff" stroke="#d0d7de"/>
    <text x="233" y="81" font-size="12" fill="#57606a">总 Token</text>
    <text x="391" y="81" font-size="11" fill="#6e7781" text-anchor="end">+50.2%</text>
    <text x="233" y="118" font-size="24" font-weight="700" fill="#24292f">2.8B</text>
  </g>
  <g>
    <rect x="418" y="54" width="188" height="86" rx="10" fill="#ffffff" stroke="#d0d7de"/>
    <text x="434" y="81" font-size="12" fill="#57606a">输入 Token</text>
    <text x="592" y="81" font-size="11" fill="#6e7781" text-anchor="end">+51.5%</text>
    <text x="434" y="118" font-size="24" font-weight="700" fill="#24292f">87.6M</text>
  </g>
  <g>
    <rect x="619" y="54" width="188" height="86" rx="10" fill="#ffffff" stroke="#d0d7de"/>
    <text x="635" y="81" font-size="12" fill="#57606a">输出 Token</text>
    <text x="793" y="81" font-size="11" fill="#6e7781" text-anchor="end">+12.5%</text>
    <text x="635" y="118" font-size="24" font-weight="700" fill="#24292f">8.3M</text>
  </g>
  <g>
    <rect x="820" y="54" width="188" height="86" rx="10" fill="#ffffff" stroke="#d0d7de"/>
    <text x="836" y="81" font-size="12" fill="#57606a">缓存 Token</text>
    <text x="994" y="81" font-size="11" fill="#6e7781" text-anchor="end">+50.2%</text>
    <text x="836" y="118" font-size="24" font-weight="700" fill="#6e7781">2.7B</text>
  </g>
  <g>
    <rect x="16" y="153" width="188" height="86" rx="10" fill="#ffffff" stroke="#d0d7de"/>
    <text x="32" y="180" font-size="12" fill="#57606a">活跃时长</text>
    <text x="190" y="180" font-size="11" fill="#6e7781" text-anchor="end">-63.7%</text>
    <text x="32" y="217" font-size="24" font-weight="700" fill="#0969da">442h 0m</text>
  </g>
  <g>
    <rect x="217" y="153" width="188" height="86" rx="10" fill="#ffffff" stroke="#d0d7de"/>
    <text x="233" y="180" font-size="12" fill="#57606a">总时长</text>
    <text x="391" y="180" font-size="11" fill="#6e7781" text-anchor="end">-54.9%</text>
    <text x="233" y="217" font-size="24" font-weight="700" fill="#24292f">821h 25m</text>
  </g>
  <g>
    <rect x="418" y="153" width="188" height="86" rx="10" fill="#ffffff" stroke="#d0d7de"/>
    <text x="434" y="180" font-size="12" fill="#57606a">会话数</text>
    <text x="592" y="180" font-size="11" fill="#6e7781" text-anchor="end">+179.9%</text>
    <text x="434" y="217" font-size="24" font-weight="700" fill="#24292f">627</text>
  </g>
  <g>
    <rect x="619" y="153" width="188" height="86" rx="10" fill="#ffffff" stroke="#d0d7de"/>
    <text x="635" y="180" font-size="12" fill="#57606a">总消息数</text>
    <text x="793" y="180" font-size="11" fill="#6e7781" text-anchor="end">+98.0%</text>
    <text x="635" y="217" font-size="24" font-weight="700" fill="#24292f">98,404</text>
  </g>
  <g>
    <rect x="820" y="153" width="188" height="86" rx="10" fill="#ffffff" stroke="#d0d7de"/>
    <text x="836" y="180" font-size="12" fill="#57606a">用户消息数</text>
    <text x="994" y="180" font-size="11" fill="#6e7781" text-anchor="end">+18.4%</text>
    <text x="836" y="217" font-size="24" font-weight="700" fill="#24292f">4,887</text>
  </g>
    
  <g>
    <rect x="16" y="252" width="489.5" height="286" rx="12" fill="#ffffff" stroke="#d0d7de"/>
    <text x="34" y="282" font-size="13" fill="#24292f" font-weight="700">每日趋势</text>
    <g font-size="10" fill="#57606a">
      <circle cx="287.5" cy="278" r="4" fill="#0969da"/><text x="295.5" y="282">输出</text>
      <circle cx="327.5" cy="278" r="4" fill="#8c959f"/><text x="335.5" y="282">输入</text>
      <circle cx="367.5" cy="278" r="4" fill="#d0d7de"/><text x="375.5" y="282">缓存</text>
    </g>
    <rect x="405.5" y="267" width="84" height="22" rx="11" fill="#f6f8fa" stroke="#d0d7de"/>
    <rect x="407.5" y="269" width="34" height="18" rx="9" fill="#ddf4ff" stroke="#0969da" stroke-opacity="0.35"/>
    <text x="424.5" y="282" font-size="10" text-anchor="middle" fill="#0969da" font-weight="700">Token</text>
    <text x="457.5" y="282" font-size="10" text-anchor="middle" fill="#57606a">费用</text>
    <text x="56" y="324" font-size="10" fill="#6e7781" text-anchor="end">1.3B</text>
    <text x="56" y="492" font-size="10" fill="#6e7781" text-anchor="end">0</text>
    <line x1="68" y1="492.5" x2="485.5" y2="492.5" stroke="#d8dee4"/>
    <rect x="79.33214285714286" y="480.18562799656877" width="36.97857142857143" height="11.814372003431213" rx="4" fill="url(#barGrad)"/><rect x="138.97500000000002" y="468.68476109719523" width="36.97857142857143" height="23.31523890280478" rx="4" fill="url(#barGrad)"/><rect x="198.61785714285713" y="316" width="36.97857142857143" height="176" rx="4" fill="url(#barGrad)"/><rect x="258.2607142857143" y="373.9915240460419" width="36.97857142857143" height="118.0084759539581" rx="4" fill="url(#barGrad)"/><rect x="317.90357142857147" y="479.5080887132262" width="36.97857142857143" height="12.491911286773801" rx="4" fill="url(#barGrad)"/><rect x="377.5464285714286" y="460.9876614908525" width="36.97857142857143" height="31.012338509147554" rx="4" fill="url(#barGrad)"/><rect x="437.18928571428575" y="490" width="36.97857142857143" height="2" rx="4" fill="url(#barGrad)"/>
    <text x="97.82142857142857" y="520" font-size="11" fill="#71717a" text-anchor="middle">7/8</text><text x="157.46428571428572" y="520" font-size="11" fill="#71717a" text-anchor="middle">7/9</text><text x="217.10714285714286" y="520" font-size="11" fill="#71717a" text-anchor="middle">7/10</text><text x="276.75" y="520" font-size="11" fill="#71717a" text-anchor="middle">7/11</text><text x="336.39285714285717" y="520" font-size="11" fill="#71717a" text-anchor="middle">7/12</text><text x="396.0357142857143" y="520" font-size="11" fill="#71717a" text-anchor="middle">7/13</text><text x="455.67857142857144" y="520" font-size="11" fill="#71717a" text-anchor="middle">7/14</text>
  </g>
    
  <g>
    <rect x="518.5" y="252" width="489.5" height="286" rx="12" fill="#ffffff" stroke="#d0d7de"/>
    <text x="536.5" y="282" font-size="13" fill="#24292f" font-weight="700">分时活跃</text>
    <rect x="908" y="267" width="84" height="22" rx="11" fill="#f6f8fa" stroke="#d0d7de"/>
    <rect x="910" y="269" width="34" height="18" rx="9" fill="#ddf4ff" stroke="#0969da" stroke-opacity="0.35"/>
    <text x="927" y="282" font-size="10" text-anchor="middle" fill="#0969da" font-weight="700">Token</text>
    <text x="960" y="282" font-size="10" text-anchor="middle" fill="#57606a">费用</text>
    <text x="560.5" y="320.984375" font-size="10" fill="#57606a" text-anchor="end">周日</text><text x="560.5" y="338.6302083333333" font-size="10" fill="#57606a" text-anchor="end">周一</text><text x="560.5" y="356.2760416666667" font-size="10" fill="#57606a" text-anchor="end">周二</text><text x="560.5" y="373.921875" font-size="10" fill="#57606a" text-anchor="end">周三</text><text x="560.5" y="391.5677083333333" font-size="10" fill="#57606a" text-anchor="end">周四</text><text x="560.5" y="409.21354166666663" font-size="10" fill="#57606a" text-anchor="end">周五</text><text x="560.5" y="426.859375" font-size="10" fill="#57606a" text-anchor="end">周六</text><rect x="570.5" y="310" width="14.645833333333332" height="14.645833333333332" rx="2.5" fill="#40c463" stroke="none" stroke-width="0"/><rect x="588.1458333333334" y="310" width="14.645833333333332" height="14.645833333333332" rx="2.5" fill="#30a14e" stroke="none" stroke-width="0"/><rect x="605.7916666666666" y="310" width="14.645833333333332" height="14.645833333333332" rx="2.5" fill="#9be9a8" stroke="none" stroke-width="0"/><rect x="623.4375" y="310" width="14.645833333333332" height="14.645833333333332" rx="2.5" fill="#9be9a8" stroke="none" stroke-width="0"/><rect x="641.0833333333334" y="310" width="14.645833333333332" height="14.645833333333332" rx="2.5" fill="#40c463" stroke="none" stroke-width="0"/><rect x="658.7291666666666" y="310" width="14.645833333333332" height="14.645833333333332" rx="2.5" fill="#9be9a8" stroke="none" stroke-width="0"/><rect x="676.375" y="310" width="14.645833333333332" height="14.645833333333332" rx="2.5" fill="#9be9a8" stroke="none" stroke-width="0"/><rect x="694.0208333333334" y="310" width="14.645833333333332" height="14.645833333333332" rx="2.5" fill="#9be9a8" stroke="none" stroke-width="0"/><rect x="711.6666666666666" y="310" width="14.645833333333332" height="14.645833333333332" rx="2.5" fill="#9be9a8" stroke="none" stroke-width="0"/><rect x="729.3125" y="310" width="14.645833333333332" height="14.645833333333332" rx="2.5" fill="#9be9a8" stroke="none" stroke-width="0"/><rect x="746.9583333333333" y="310" width="14.645833333333332" height="14.645833333333332" rx="2.5" fill="#9be9a8" stroke="none" stroke-width="0"/><rect x="764.6041666666666" y="310" width="14.645833333333332" height="14.645833333333332" rx="2.5" fill="#9be9a8" stroke="none" stroke-width="0"/><rect x="782.25" y="310" width="14.645833333333332" height="14.645833333333332" rx="2.5" fill="#9be9a8" stroke="none" stroke-width="0"/><rect x="799.8958333333333" y="310" width="14.645833333333332" height="14.645833333333332" rx="2.5" fill="#9be9a8" stroke="none" stroke-width="0"/><rect x="817.5416666666666" y="310" width="14.645833333333332" height="14.645833333333332" rx="2.5" fill="#9be9a8" stroke="none" stroke-width="0"/><rect x="835.1875" y="310" width="14.645833333333332" height="14.645833333333332" rx="2.5" fill="#9be9a8" stroke="none" stroke-width="0"/><rect x="852.8333333333333" y="310" width="14.645833333333332" height="14.645833333333332" rx="2.5" fill="#9be9a8" stroke="none" stroke-width="0"/><rect x="870.4791666666666" y="310" width="14.645833333333332" height="14.645833333333332" rx="2.5" fill="#9be9a8" stroke="none" stroke-width="0"/><rect x="888.125" y="310" width="14.645833333333332" height="14.645833333333332" rx="2.5" fill="#9be9a8" stroke="none" stroke-width="0"/><rect x="905.7708333333333" y="310" width="14.645833333333332" height="14.645833333333332" rx="2.5" fill="#9be9a8" stroke="none" stroke-width="0"/><rect x="923.4166666666666" y="310" width="14.645833333333332" height="14.645833333333332" rx="2.5" fill="#9be9a8" stroke="none" stroke-width="0"/><rect x="941.0625" y="310" width="14.645833333333332" height="14.645833333333332" rx="2.5" fill="#ebedf0" stroke="#d8dee4" stroke-width="0.5"/><rect x="958.7083333333333" y="310" width="14.645833333333332" height="14.645833333333332" rx="2.5" fill="#9be9a8" stroke="none" stroke-width="0"/><rect x="976.3541666666666" y="310" width="14.645833333333332" height="14.645833333333332" rx="2.5" fill="#ebedf0" stroke="#d8dee4" stroke-width="0.5"/><rect x="570.5" y="327.6458333333333" width="14.645833333333332" height="14.645833333333332" rx="2.5" fill="#ebedf0" stroke="#d8dee4" stroke-width="0.5"/><rect x="588.1458333333334" y="327.6458333333333" width="14.645833333333332" height="14.645833333333332" rx="2.5" fill="#ebedf0" stroke="#d8dee4" stroke-width="0.5"/><rect x="605.7916666666666" y="327.6458333333333" width="14.645833333333332" height="14.645833333333332" rx="2.5" fill="#ebedf0" stroke="#d8dee4" stroke-width="0.5"/><rect x="623.4375" y="327.6458333333333" width="14.645833333333332" height="14.645833333333332" rx="2.5" fill="#ebedf0" stroke="#d8dee4" stroke-width="0.5"/><rect x="641.0833333333334" y="327.6458333333333" width="14.645833333333332" height="14.645833333333332" rx="2.5" fill="#9be9a8" stroke="none" stroke-width="0"/><rect x="658.7291666666666" y="327.6458333333333" width="14.645833333333332" height="14.645833333333332" rx="2.5" fill="#9be9a8" stroke="none" stroke-width="0"/><rect x="676.375" y="327.6458333333333" width="14.645833333333332" height="14.645833333333332" rx="2.5" fill="#9be9a8" stroke="none" stroke-width="0"/><rect x="694.0208333333334" y="327.6458333333333" width="14.645833333333332" height="14.645833333333332" rx="2.5" fill="#9be9a8" stroke="none" stroke-width="0"/><rect x="711.6666666666666" y="327.6458333333333" width="14.645833333333332" height="14.645833333333332" rx="2.5" fill="#ebedf0" stroke="#d8dee4" stroke-width="0.5"/><rect x="729.3125" y="327.6458333333333" width="14.645833333333332" height="14.645833333333332" rx="2.5" fill="#9be9a8" stroke="none" stroke-width="0"/><rect x="746.9583333333333" y="327.6458333333333" width="14.645833333333332" height="14.645833333333332" rx="2.5" fill="#9be9a8" stroke="none" stroke-width="0"/><rect x="764.6041666666666" y="327.6458333333333" width="14.645833333333332" height="14.645833333333332" rx="2.5" fill="#40c463" stroke="none" stroke-width="0"/><rect x="782.25" y="327.6458333333333" width="14.645833333333332" height="14.645833333333332" rx="2.5" fill="#9be9a8" stroke="none" stroke-width="0"/><rect x="799.8958333333333" y="327.6458333333333" width="14.645833333333332" height="14.645833333333332" rx="2.5" fill="#40c463" stroke="none" stroke-width="0"/><rect x="817.5416666666666" y="327.6458333333333" width="14.645833333333332" height="14.645833333333332" rx="2.5" fill="#9be9a8" stroke="none" stroke-width="0"/><rect x="835.1875" y="327.6458333333333" width="14.645833333333332" height="14.645833333333332" rx="2.5" fill="#9be9a8" stroke="none" stroke-width="0"/><rect x="852.8333333333333" y="327.6458333333333" width="14.645833333333332" height="14.645833333333332" rx="2.5" fill="#9be9a8" stroke="none" stroke-width="0"/><rect x="870.4791666666666" y="327.6458333333333" width="14.645833333333332" height="14.645833333333332" rx="2.5" fill="#9be9a8" stroke="none" stroke-width="0"/><rect x="888.125" y="327.6458333333333" width="14.645833333333332" height="14.645833333333332" rx="2.5" fill="#9be9a8" stroke="none" stroke-width="0"/><rect x="905.7708333333333" y="327.6458333333333" width="14.645833333333332" height="14.645833333333332" rx="2.5" fill="#9be9a8" stroke="none" stroke-width="0"/><rect x="923.4166666666666" y="327.6458333333333" width="14.645833333333332" height="14.645833333333332" rx="2.5" fill="#9be9a8" stroke="none" stroke-width="0"/><rect x="941.0625" y="327.6458333333333" width="14.645833333333332" height="14.645833333333332" rx="2.5" fill="#9be9a8" stroke="none" stroke-width="0"/><rect x="958.7083333333333" y="327.6458333333333" width="14.645833333333332" height="14.645833333333332" rx="2.5" fill="#30a14e" stroke="none" stroke-width="0"/><rect x="976.3541666666666" y="327.6458333333333" width="14.645833333333332" height="14.645833333333332" rx="2.5" fill="#30a14e" stroke="none" stroke-width="0"/><rect x="570.5" y="345.2916666666667" width="14.645833333333332" height="14.645833333333332" rx="2.5" fill="#9be9a8" stroke="none" stroke-width="0"/><rect x="588.1458333333334" y="345.2916666666667" width="14.645833333333332" height="14.645833333333332" rx="2.5" fill="#9be9a8" stroke="none" stroke-width="0"/><rect x="605.7916666666666" y="345.2916666666667" width="14.645833333333332" height="14.645833333333332" rx="2.5" fill="#ebedf0" stroke="#d8dee4" stroke-width="0.5"/><rect x="623.4375" y="345.2916666666667" width="14.645833333333332" height="14.645833333333332" rx="2.5" fill="#ebedf0" stroke="#d8dee4" stroke-width="0.5"/><rect x="641.0833333333334" y="345.2916666666667" width="14.645833333333332" height="14.645833333333332" rx="2.5" fill="#ebedf0" stroke="#d8dee4" stroke-width="0.5"/><rect x="658.7291666666666" y="345.2916666666667" width="14.645833333333332" height="14.645833333333332" rx="2.5" fill="#ebedf0" stroke="#d8dee4" stroke-width="0.5"/><rect x="676.375" y="345.2916666666667" width="14.645833333333332" height="14.645833333333332" rx="2.5" fill="#ebedf0" stroke="#d8dee4" stroke-width="0.5"/><rect x="694.0208333333334" y="345.2916666666667" width="14.645833333333332" height="14.645833333333332" rx="2.5" fill="#ebedf0" stroke="#d8dee4" stroke-width="0.5"/><rect x="711.6666666666666" y="345.2916666666667" width="14.645833333333332" height="14.645833333333332" rx="2.5" fill="#ebedf0" stroke="#d8dee4" stroke-width="0.5"/><rect x="729.3125" y="345.2916666666667" width="14.645833333333332" height="14.645833333333332" rx="2.5" fill="#9be9a8" stroke="none" stroke-width="0"/><rect x="746.9583333333333" y="345.2916666666667" width="14.645833333333332" height="14.645833333333332" rx="2.5" fill="#9be9a8" stroke="none" stroke-width="0"/><rect x="764.6041666666666" y="345.2916666666667" width="14.645833333333332" height="14.645833333333332" rx="2.5" fill="#9be9a8" stroke="none" stroke-width="0"/><rect x="782.25" y="345.2916666666667" width="14.645833333333332" height="14.645833333333332" rx="2.5" fill="#9be9a8" stroke="none" stroke-width="0"/><rect x="799.8958333333333" y="345.2916666666667" width="14.645833333333332" height="14.645833333333332" rx="2.5" fill="#9be9a8" stroke="none" stroke-width="0"/><rect x="817.5416666666666" y="345.2916666666667" width="14.645833333333332" height="14.645833333333332" rx="2.5" fill="#9be9a8" stroke="none" stroke-width="0"/><rect x="835.1875" y="345.2916666666667" width="14.645833333333332" height="14.645833333333332" rx="2.5" fill="#ebedf0" stroke="#d8dee4" stroke-width="0.5"/><rect x="852.8333333333333" y="345.2916666666667" width="14.645833333333332" height="14.645833333333332" rx="2.5" fill="#ebedf0" stroke="#d8dee4" stroke-width="0.5"/><rect x="870.4791666666666" y="345.2916666666667" width="14.645833333333332" height="14.645833333333332" rx="2.5" fill="#ebedf0" stroke="#d8dee4" stroke-width="0.5"/><rect x="888.125" y="345.2916666666667" width="14.645833333333332" height="14.645833333333332" rx="2.5" fill="#ebedf0" stroke="#d8dee4" stroke-width="0.5"/><rect x="905.7708333333333" y="345.2916666666667" width="14.645833333333332" height="14.645833333333332" rx="2.5" fill="#ebedf0" stroke="#d8dee4" stroke-width="0.5"/><rect x="923.4166666666666" y="345.2916666666667" width="14.645833333333332" height="14.645833333333332" rx="2.5" fill="#ebedf0" stroke="#d8dee4" stroke-width="0.5"/><rect x="941.0625" y="345.2916666666667" width="14.645833333333332" height="14.645833333333332" rx="2.5" fill="#ebedf0" stroke="#d8dee4" stroke-width="0.5"/><rect x="958.7083333333333" y="345.2916666666667" width="14.645833333333332" height="14.645833333333332" rx="2.5" fill="#ebedf0" stroke="#d8dee4" stroke-width="0.5"/><rect x="976.3541666666666" y="345.2916666666667" width="14.645833333333332" height="14.645833333333332" rx="2.5" fill="#ebedf0" stroke="#d8dee4" stroke-width="0.5"/><rect x="570.5" y="362.9375" width="14.645833333333332" height="14.645833333333332" rx="2.5" fill="#ebedf0" stroke="#d8dee4" stroke-width="0.5"/><rect x="588.1458333333334" y="362.9375" width="14.645833333333332" height="14.645833333333332" rx="2.5" fill="#ebedf0" stroke="#d8dee4" stroke-width="0.5"/><rect x="605.7916666666666" y="362.9375" width="14.645833333333332" height="14.645833333333332" rx="2.5" fill="#ebedf0" stroke="#d8dee4" stroke-width="0.5"/><rect x="623.4375" y="362.9375" width="14.645833333333332" height="14.645833333333332" rx="2.5" fill="#ebedf0" stroke="#d8dee4" stroke-width="0.5"/><rect x="641.0833333333334" y="362.9375" width="14.645833333333332" height="14.645833333333332" rx="2.5" fill="#9be9a8" stroke="none" stroke-width="0"/><rect x="658.7291666666666" y="362.9375" width="14.645833333333332" height="14.645833333333332" rx="2.5" fill="#9be9a8" stroke="none" stroke-width="0"/><rect x="676.375" y="362.9375" width="14.645833333333332" height="14.645833333333332" rx="2.5" fill="#9be9a8" stroke="none" stroke-width="0"/><rect x="694.0208333333334" y="362.9375" width="14.645833333333332" height="14.645833333333332" rx="2.5" fill="#9be9a8" stroke="none" stroke-width="0"/><rect x="711.6666666666666" y="362.9375" width="14.645833333333332" height="14.645833333333332" rx="2.5" fill="#ebedf0" stroke="#d8dee4" stroke-width="0.5"/><rect x="729.3125" y="362.9375" width="14.645833333333332" height="14.645833333333332" rx="2.5" fill="#9be9a8" stroke="none" stroke-width="0"/><rect x="746.9583333333333" y="362.9375" width="14.645833333333332" height="14.645833333333332" rx="2.5" fill="#9be9a8" stroke="none" stroke-width="0"/><rect x="764.6041666666666" y="362.9375" width="14.645833333333332" height="14.645833333333332" rx="2.5" fill="#9be9a8" stroke="none" stroke-width="0"/><rect x="782.25" y="362.9375" width="14.645833333333332" height="14.645833333333332" rx="2.5" fill="#9be9a8" stroke="none" stroke-width="0"/><rect x="799.8958333333333" y="362.9375" width="14.645833333333332" height="14.645833333333332" rx="2.5" fill="#ebedf0" stroke="#d8dee4" stroke-width="0.5"/><rect x="817.5416666666666" y="362.9375" width="14.645833333333332" height="14.645833333333332" rx="2.5" fill="#9be9a8" stroke="none" stroke-width="0"/><rect x="835.1875" y="362.9375" width="14.645833333333332" height="14.645833333333332" rx="2.5" fill="#9be9a8" stroke="none" stroke-width="0"/><rect x="852.8333333333333" y="362.9375" width="14.645833333333332" height="14.645833333333332" rx="2.5" fill="#9be9a8" stroke="none" stroke-width="0"/><rect x="870.4791666666666" y="362.9375" width="14.645833333333332" height="14.645833333333332" rx="2.5" fill="#9be9a8" stroke="none" stroke-width="0"/><rect x="888.125" y="362.9375" width="14.645833333333332" height="14.645833333333332" rx="2.5" fill="#9be9a8" stroke="none" stroke-width="0"/><rect x="905.7708333333333" y="362.9375" width="14.645833333333332" height="14.645833333333332" rx="2.5" fill="#9be9a8" stroke="none" stroke-width="0"/><rect x="923.4166666666666" y="362.9375" width="14.645833333333332" height="14.645833333333332" rx="2.5" fill="#ebedf0" stroke="#d8dee4" stroke-width="0.5"/><rect x="941.0625" y="362.9375" width="14.645833333333332" height="14.645833333333332" rx="2.5" fill="#ebedf0" stroke="#d8dee4" stroke-width="0.5"/><rect x="958.7083333333333" y="362.9375" width="14.645833333333332" height="14.645833333333332" rx="2.5" fill="#9be9a8" stroke="none" stroke-width="0"/><rect x="976.3541666666666" y="362.9375" width="14.645833333333332" height="14.645833333333332" rx="2.5" fill="#ebedf0" stroke="#d8dee4" stroke-width="0.5"/><rect x="570.5" y="380.5833333333333" width="14.645833333333332" height="14.645833333333332" rx="2.5" fill="#ebedf0" stroke="#d8dee4" stroke-width="0.5"/><rect x="588.1458333333334" y="380.5833333333333" width="14.645833333333332" height="14.645833333333332" rx="2.5" fill="#ebedf0" stroke="#d8dee4" stroke-width="0.5"/><rect x="605.7916666666666" y="380.5833333333333" width="14.645833333333332" height="14.645833333333332" rx="2.5" fill="#ebedf0" stroke="#d8dee4" stroke-width="0.5"/><rect x="623.4375" y="380.5833333333333" width="14.645833333333332" height="14.645833333333332" rx="2.5" fill="#ebedf0" stroke="#d8dee4" stroke-width="0.5"/><rect x="641.0833333333334" y="380.5833333333333" width="14.645833333333332" height="14.645833333333332" rx="2.5" fill="#9be9a8" stroke="none" stroke-width="0"/><rect x="658.7291666666666" y="380.5833333333333" width="14.645833333333332" height="14.645833333333332" rx="2.5" fill="#ebedf0" stroke="#d8dee4" stroke-width="0.5"/><rect x="676.375" y="380.5833333333333" width="14.645833333333332" height="14.645833333333332" rx="2.5" fill="#ebedf0" stroke="#d8dee4" stroke-width="0.5"/><rect x="694.0208333333334" y="380.5833333333333" width="14.645833333333332" height="14.645833333333332" rx="2.5" fill="#ebedf0" stroke="#d8dee4" stroke-width="0.5"/><rect x="711.6666666666666" y="380.5833333333333" width="14.645833333333332" height="14.645833333333332" rx="2.5" fill="#ebedf0" stroke="#d8dee4" stroke-width="0.5"/><rect x="729.3125" y="380.5833333333333" width="14.645833333333332" height="14.645833333333332" rx="2.5" fill="#9be9a8" stroke="none" stroke-width="0"/><rect x="746.9583333333333" y="380.5833333333333" width="14.645833333333332" height="14.645833333333332" rx="2.5" fill="#9be9a8" stroke="none" stroke-width="0"/><rect x="764.6041666666666" y="380.5833333333333" width="14.645833333333332" height="14.645833333333332" rx="2.5" fill="#9be9a8" stroke="none" stroke-width="0"/><rect x="782.25" y="380.5833333333333" width="14.645833333333332" height="14.645833333333332" rx="2.5" fill="#9be9a8" stroke="none" stroke-width="0"/><rect x="799.8958333333333" y="380.5833333333333" width="14.645833333333332" height="14.645833333333332" rx="2.5" fill="#ebedf0" stroke="#d8dee4" stroke-width="0.5"/><rect x="817.5416666666666" y="380.5833333333333" width="14.645833333333332" height="14.645833333333332" rx="2.5" fill="#0e4429" stroke="none" stroke-width="0"/><rect x="835.1875" y="380.5833333333333" width="14.645833333333332" height="14.645833333333332" rx="2.5" fill="#9be9a8" stroke="none" stroke-width="0"/><rect x="852.8333333333333" y="380.5833333333333" width="14.645833333333332" height="14.645833333333332" rx="2.5" fill="#30a14e" stroke="none" stroke-width="0"/><rect x="870.4791666666666" y="380.5833333333333" width="14.645833333333332" height="14.645833333333332" rx="2.5" fill="#9be9a8" stroke="none" stroke-width="0"/><rect x="888.125" y="380.5833333333333" width="14.645833333333332" height="14.645833333333332" rx="2.5" fill="#9be9a8" stroke="none" stroke-width="0"/><rect x="905.7708333333333" y="380.5833333333333" width="14.645833333333332" height="14.645833333333332" rx="2.5" fill="#9be9a8" stroke="none" stroke-width="0"/><rect x="923.4166666666666" y="380.5833333333333" width="14.645833333333332" height="14.645833333333332" rx="2.5" fill="#40c463" stroke="none" stroke-width="0"/><rect x="941.0625" y="380.5833333333333" width="14.645833333333332" height="14.645833333333332" rx="2.5" fill="#9be9a8" stroke="none" stroke-width="0"/><rect x="958.7083333333333" y="380.5833333333333" width="14.645833333333332" height="14.645833333333332" rx="2.5" fill="#9be9a8" stroke="none" stroke-width="0"/><rect x="976.3541666666666" y="380.5833333333333" width="14.645833333333332" height="14.645833333333332" rx="2.5" fill="#40c463" stroke="none" stroke-width="0"/><rect x="570.5" y="398.22916666666663" width="14.645833333333332" height="14.645833333333332" rx="2.5" fill="#9be9a8" stroke="none" stroke-width="0"/><rect x="588.1458333333334" y="398.22916666666663" width="14.645833333333332" height="14.645833333333332" rx="2.5" fill="#ebedf0" stroke="#d8dee4" stroke-width="0.5"/><rect x="605.7916666666666" y="398.22916666666663" width="14.645833333333332" height="14.645833333333332" rx="2.5" fill="#ebedf0" stroke="#d8dee4" stroke-width="0.5"/><rect x="623.4375" y="398.22916666666663" width="14.645833333333332" height="14.645833333333332" rx="2.5" fill="#ebedf0" stroke="#d8dee4" stroke-width="0.5"/><rect x="641.0833333333334" y="398.22916666666663" width="14.645833333333332" height="14.645833333333332" rx="2.5" fill="#9be9a8" stroke="none" stroke-width="0"/><rect x="658.7291666666666" y="398.22916666666663" width="14.645833333333332" height="14.645833333333332" rx="2.5" fill="#ebedf0" stroke="#d8dee4" stroke-width="0.5"/><rect x="676.375" y="398.22916666666663" width="14.645833333333332" height="14.645833333333332" rx="2.5" fill="#ebedf0" stroke="#d8dee4" stroke-width="0.5"/><rect x="694.0208333333334" y="398.22916666666663" width="14.645833333333332" height="14.645833333333332" rx="2.5" fill="#ebedf0" stroke="#d8dee4" stroke-width="0.5"/><rect x="711.6666666666666" y="398.22916666666663" width="14.645833333333332" height="14.645833333333332" rx="2.5" fill="#9be9a8" stroke="none" stroke-width="0"/><rect x="729.3125" y="398.22916666666663" width="14.645833333333332" height="14.645833333333332" rx="2.5" fill="#9be9a8" stroke="none" stroke-width="0"/><rect x="746.9583333333333" y="398.22916666666663" width="14.645833333333332" height="14.645833333333332" rx="2.5" fill="#40c463" stroke="none" stroke-width="0"/><rect x="764.6041666666666" y="398.22916666666663" width="14.645833333333332" height="14.645833333333332" rx="2.5" fill="#9be9a8" stroke="none" stroke-width="0"/><rect x="782.25" y="398.22916666666663" width="14.645833333333332" height="14.645833333333332" rx="2.5" fill="#9be9a8" stroke="none" stroke-width="0"/><rect x="799.8958333333333" y="398.22916666666663" width="14.645833333333332" height="14.645833333333332" rx="2.5" fill="#9be9a8" stroke="none" stroke-width="0"/><rect x="817.5416666666666" y="398.22916666666663" width="14.645833333333332" height="14.645833333333332" rx="2.5" fill="#9be9a8" stroke="none" stroke-width="0"/><rect x="835.1875" y="398.22916666666663" width="14.645833333333332" height="14.645833333333332" rx="2.5" fill="#9be9a8" stroke="none" stroke-width="0"/><rect x="852.8333333333333" y="398.22916666666663" width="14.645833333333332" height="14.645833333333332" rx="2.5" fill="#40c463" stroke="none" stroke-width="0"/><rect x="870.4791666666666" y="398.22916666666663" width="14.645833333333332" height="14.645833333333332" rx="2.5" fill="#9be9a8" stroke="none" stroke-width="0"/><rect x="888.125" y="398.22916666666663" width="14.645833333333332" height="14.645833333333332" rx="2.5" fill="#9be9a8" stroke="none" stroke-width="0"/><rect x="905.7708333333333" y="398.22916666666663" width="14.645833333333332" height="14.645833333333332" rx="2.5" fill="#9be9a8" stroke="none" stroke-width="0"/><rect x="923.4166666666666" y="398.22916666666663" width="14.645833333333332" height="14.645833333333332" rx="2.5" fill="#9be9a8" stroke="none" stroke-width="0"/><rect x="941.0625" y="398.22916666666663" width="14.645833333333332" height="14.645833333333332" rx="2.5" fill="#ebedf0" stroke="#d8dee4" stroke-width="0.5"/><rect x="958.7083333333333" y="398.22916666666663" width="14.645833333333332" height="14.645833333333332" rx="2.5" fill="#9be9a8" stroke="none" stroke-width="0"/><rect x="976.3541666666666" y="398.22916666666663" width="14.645833333333332" height="14.645833333333332" rx="2.5" fill="#ebedf0" stroke="#d8dee4" stroke-width="0.5"/><rect x="570.5" y="415.875" width="14.645833333333332" height="14.645833333333332" rx="2.5" fill="#ebedf0" stroke="#d8dee4" stroke-width="0.5"/><rect x="588.1458333333334" y="415.875" width="14.645833333333332" height="14.645833333333332" rx="2.5" fill="#9be9a8" stroke="none" stroke-width="0"/><rect x="605.7916666666666" y="415.875" width="14.645833333333332" height="14.645833333333332" rx="2.5" fill="#9be9a8" stroke="none" stroke-width="0"/><rect x="623.4375" y="415.875" width="14.645833333333332" height="14.645833333333332" rx="2.5" fill="#ebedf0" stroke="#d8dee4" stroke-width="0.5"/><rect x="641.0833333333334" y="415.875" width="14.645833333333332" height="14.645833333333332" rx="2.5" fill="#9be9a8" stroke="none" stroke-width="0"/><rect x="658.7291666666666" y="415.875" width="14.645833333333332" height="14.645833333333332" rx="2.5" fill="#9be9a8" stroke="none" stroke-width="0"/><rect x="676.375" y="415.875" width="14.645833333333332" height="14.645833333333332" rx="2.5" fill="#9be9a8" stroke="none" stroke-width="0"/><rect x="694.0208333333334" y="415.875" width="14.645833333333332" height="14.645833333333332" rx="2.5" fill="#9be9a8" stroke="none" stroke-width="0"/><rect x="711.6666666666666" y="415.875" width="14.645833333333332" height="14.645833333333332" rx="2.5" fill="#9be9a8" stroke="none" stroke-width="0"/><rect x="729.3125" y="415.875" width="14.645833333333332" height="14.645833333333332" rx="2.5" fill="#9be9a8" stroke="none" stroke-width="0"/><rect x="746.9583333333333" y="415.875" width="14.645833333333332" height="14.645833333333332" rx="2.5" fill="#9be9a8" stroke="none" stroke-width="0"/><rect x="764.6041666666666" y="415.875" width="14.645833333333332" height="14.645833333333332" rx="2.5" fill="#9be9a8" stroke="none" stroke-width="0"/><rect x="782.25" y="415.875" width="14.645833333333332" height="14.645833333333332" rx="2.5" fill="#9be9a8" stroke="none" stroke-width="0"/><rect x="799.8958333333333" y="415.875" width="14.645833333333332" height="14.645833333333332" rx="2.5" fill="#9be9a8" stroke="none" stroke-width="0"/><rect x="817.5416666666666" y="415.875" width="14.645833333333332" height="14.645833333333332" rx="2.5" fill="#9be9a8" stroke="none" stroke-width="0"/><rect x="835.1875" y="415.875" width="14.645833333333332" height="14.645833333333332" rx="2.5" fill="#9be9a8" stroke="none" stroke-width="0"/><rect x="852.8333333333333" y="415.875" width="14.645833333333332" height="14.645833333333332" rx="2.5" fill="#9be9a8" stroke="none" stroke-width="0"/><rect x="870.4791666666666" y="415.875" width="14.645833333333332" height="14.645833333333332" rx="2.5" fill="#9be9a8" stroke="none" stroke-width="0"/><rect x="888.125" y="415.875" width="14.645833333333332" height="14.645833333333332" rx="2.5" fill="#ebedf0" stroke="#d8dee4" stroke-width="0.5"/><rect x="905.7708333333333" y="415.875" width="14.645833333333332" height="14.645833333333332" rx="2.5" fill="#ebedf0" stroke="#d8dee4" stroke-width="0.5"/><rect x="923.4166666666666" y="415.875" width="14.645833333333332" height="14.645833333333332" rx="2.5" fill="#9be9a8" stroke="none" stroke-width="0"/><rect x="941.0625" y="415.875" width="14.645833333333332" height="14.645833333333332" rx="2.5" fill="#9be9a8" stroke="none" stroke-width="0"/><rect x="958.7083333333333" y="415.875" width="14.645833333333332" height="14.645833333333332" rx="2.5" fill="#40c463" stroke="none" stroke-width="0"/><rect x="976.3541666666666" y="415.875" width="14.645833333333332" height="14.645833333333332" rx="2.5" fill="#40c463" stroke="none" stroke-width="0"/><text x="577.8229166666666" y="449.5208333333333" font-size="10" fill="#57606a" text-anchor="middle">00</text><text x="630.7604166666666" y="449.5208333333333" font-size="10" fill="#57606a" text-anchor="middle">03</text><text x="683.6979166666666" y="449.5208333333333" font-size="10" fill="#57606a" text-anchor="middle">06</text><text x="736.6354166666666" y="449.5208333333333" font-size="10" fill="#57606a" text-anchor="middle">09</text><text x="789.5729166666666" y="449.5208333333333" font-size="10" fill="#57606a" text-anchor="middle">12</text><text x="842.5104166666666" y="449.5208333333333" font-size="10" fill="#57606a" text-anchor="middle">15</text><text x="895.4479166666666" y="449.5208333333333" font-size="10" fill="#57606a" text-anchor="middle">18</text><text x="948.3854166666666" y="449.5208333333333" font-size="10" fill="#57606a" text-anchor="middle">21</text><text x="878" y="522" font-size="10" fill="#57606a">少</text><rect x="892" y="513" width="11" height="11" rx="2.5" fill="#ebedf0" stroke="#d8dee4" stroke-width="0.5"/><rect x="906" y="513" width="11" height="11" rx="2.5" fill="#9be9a8" stroke="none" stroke-width="0"/><rect x="920" y="513" width="11" height="11" rx="2.5" fill="#40c463" stroke="none" stroke-width="0"/><rect x="934" y="513" width="11" height="11" rx="2.5" fill="#30a14e" stroke="none" stroke-width="0"/><rect x="948" y="513" width="11" height="11" rx="2.5" fill="#216e39" stroke="none" stroke-width="0"/><rect x="962" y="513" width="11" height="11" rx="2.5" fill="#0e4429" stroke="none" stroke-width="0"/><text x="980" y="522" font-size="10" fill="#57606a">多</text>
  </g>
    <text x="1004" y="548" font-size="9" fill="#8c959f" text-anchor="end">更新于 2026/07/14 02:04 UTC+8 · vibecafe.ai/usage</text>
  </g>
</svg>
